<svg id="Capa_1" data-name="Capa 1" xmlns="http://www.w3.org/2000/svg" viewBox="0 0 40 40"><defs><style>.cls-1{fill:#bfbfbf;}</style></defs><path class="cls-1" d="M16.85,31.35H32A6,6,0,0,0,36,29.88a4.75,4.75,0,0,0,1.7-3.73,4.66,4.66,0,0,0-1.7-3.7A6,6,0,0,0,32,21a8.52,8.52,0,0,0-2.35-5.32,6.84,6.84,0,0,0-5.2-2.23,8.28,8.28,0,0,0-4.72,1.43,6.76,6.76,0,0,0-2.83,3.92,6.39,6.39,0,0,0-4.6,1.83,6.18,6.18,0,0,0,0,8.92A6.45,6.45,0,0,0,16.85,31.35ZM24,44a19.35,19.35,0,0,1-7.75-1.57A20.15,20.15,0,0,1,5.58,31.75a19.92,19.92,0,0,1,0-15.55,20,20,0,0,1,4.3-6.35,20.45,20.45,0,0,1,6.37-4.28A19.35,19.35,0,0,1,24,4a19.45,19.45,0,0,1,7.8,1.57A20,20,0,0,1,42.43,16.2,19.45,19.45,0,0,1,44,24a19.35,19.35,0,0,1-1.57,7.75,20.62,20.62,0,0,1-4.28,6.38,20.14,20.14,0,0,1-6.35,4.3A19.45,19.45,0,0,1,24,44Z" transform="translate(-4 -4)"/></svg> 